<svg xmlns="http://www.w3.org/2000/svg" xmlns:xlink="http://www.w3.org/1999/xlink" viewBox="0 0 147.14 147.14"><defs><style>.cls-1{fill:url(#linear-gradient);}.cls-2{fill:none;stroke:#fff;stroke-miterlimit:10;}.cls-3{fill:#fff;}</style><linearGradient id="linear-gradient" y1="73.57" x2="147.14" y2="73.57" gradientUnits="userSpaceOnUse"><stop offset="0" stop-color="#72abdd"/><stop offset="1" stop-color="#48bfad"/></linearGradient></defs><g id="Layer_2" data-name="Layer 2"><g id="Layer_1-2" data-name="Layer 1"><g id="Favicon"><rect class="cls-1" width="147.14" height="147.14" rx="22.44"/><g id="Outlines"><path class="cls-2" d="M60.15,60c0-13.54-9.3-22.6-20.66-22.6S18.71,46.44,18.71,60V88c0,13.53,9.3,22.59,20.78,22.59a21,21,0,0,0,11.24-3.14L54.35,113a27.32,27.32,0,0,1-14.86,4.23c-15.46,0-28-12.33-28-29.24V60c0-16.92,12.57-29.24,28-29.24S67.4,43.06,67.4,60m0,14.84V90.91c0,5.68-3.5,9.42-9.42,9.42h-9.3c-4.11,0-5.92-2.42-6.41-4.35H42c-.48,1.93-2.17,4.35-6.28,4.35H32.12a8.94,8.94,0,0,1-8.94-8.94V56.83a8.94,8.94,0,0,1,8.94-8.94h3c4.11,0,5.92,2.42,6.41,4.35h.24V48.13H55.68V92.48a.37.37,0,0,0,.37.36h3.74a.36.36,0,0,0,.36-.36V74M41.55,85.83V62.39a.37.37,0,0,0-.37-.36h-3.5a.36.36,0,0,0-.36.36V85.83a.36.36,0,0,0,.36.36h3.5A.37.37,0,0,0,41.55,85.83Z"/><polygon class="cls-3" points="132.94 72.36 82.26 72.36 82.26 86.33 82.26 86.68 82.26 115.7 100.98 115.7 100.98 86.68 132.94 86.68 132.94 72.36"/><rect class="cls-3" x="82.26" y="42.55" width="54.71" height="15.89"/><polygon class="cls-3" points="77.41 31.37 40.91 70.47 40.91 86.79 77.3 86.79 77.3 72.45 59.66 72.45 77.3 53.32 77.41 31.37"/></g></g></g></g></svg>