<svg xmlns="http://www.w3.org/2000/svg" viewBox="0 0 175.76 72.6"><defs><style>.cls-1{font-size:16.62px;font-family:RefrigeratorDeluxe-Heavy, Refrigerator Deluxe;font-weight:800;}.cls-1,.cls-4{fill:#fff;}.cls-2{letter-spacing:-0.06em;}.cls-3{fill:none;stroke:#fff;stroke-miterlimit:10;}</style></defs><g id="Layer_2" data-name="Layer 2"><g id="Layer_1-2" data-name="Layer 1"><g id="Outlines"><text class="cls-1" transform="translate(107.61 46.83)">FOURFRONT</text><text class="cls-1" transform="translate(107.61 23.43)">BE<tspan class="cls-2" x="14.64" y="0">@</tspan><tspan x="22.29" y="0">THE</tspan></text><path class="cls-3" d="M40.8,24.7C40.8,13.5,33.1,6,23.7,6S6.5,13.5,6.5,24.7V47.9c0,11.2,7.7,18.7,17.2,18.7A17.36,17.36,0,0,0,33,64l3,4.6a22.63,22.63,0,0,1-12.3,3.5C10.9,72.1.5,61.9.5,47.9V24.7C.5,10.7,10.9.5,23.7.5S46.8,10.7,46.8,24.7M46.8,37V50.3c0,4.7-2.9,7.8-7.8,7.8H31.3c-3.4,0-4.9-2-5.3-3.6h-.2c-.4,1.6-1.8,3.6-5.2,3.6h-3a7.4,7.4,0,0,1-7.4-7.4V22.1a7.4,7.4,0,0,1,7.4-7.4h2.5c3.4,0,4.9,2,5.3,3.6h.2V14.9H37.1V51.6a.3.3,0,0,0,.3.3h3.1a.29.29,0,0,0,.3-.3V36.3M25.4,46.1V26.7a.3.3,0,0,0-.3-.3H22.2a.31.31,0,0,0-.3.3V46.1a.3.3,0,0,0,.3.3h2.9A.29.29,0,0,0,25.4,46.1Z"/><polygon class="cls-4" points="101.04 34.95 59.1 34.95 59.1 46.52 59.1 46.81 59.1 70.82 74.6 70.82 74.6 46.81 101.05 46.81 101.04 34.95"/><rect class="cls-4" x="59.1" y="10.28" width="45.28" height="13.15"/><polygon class="cls-4" points="55.13 0.97 24.92 33.33 24.92 46.84 55.04 46.84 55.04 34.97 40.44 34.97 55.04 19.14 55.13 0.97"/></g></g></g></svg>